<?xml version="1.0" encoding="UTF-8" standalone="no"?>
<svg
   xmlns:dc="http://purl.org/dc/elements/1.1/"
   xmlns:cc="http://creativecommons.org/ns#"
   xmlns:rdf="http://www.w3.org/1999/02/22-rdf-syntax-ns#"
   xmlns:svg="http://www.w3.org/2000/svg"
   xmlns="http://www.w3.org/2000/svg"
   xmlns:sodipodi="http://sodipodi.sourceforge.net/DTD/sodipodi-0.dtd"
   xmlns:inkscape="http://www.inkscape.org/namespaces/inkscape"
   version="1.0"
   width="158.99783pt"
   height="156.88637pt"
   viewBox="0 0 158.99783 156.88637"
   preserveAspectRatio="xMidYMid meet"
   id="svg8"
   sodipodi:docname="guitar.svg"
   inkscape:version="0.92.3 (2405546, 2018-03-11)">
  <defs
     id="defs12" />
  <sodipodi:namedview
     pagecolor="#ffffff"
     bordercolor="#666666"
     borderopacity="1"
     objecttolerance="10"
     gridtolerance="10"
     guidetolerance="10"
     inkscape:pageopacity="0"
     inkscape:pageshadow="2"
     inkscape:window-width="1080"
     inkscape:window-height="1892"
     id="namedview10"
     showgrid="false"
     inkscape:zoom="1.1037885"
     inkscape:cx="426.25918"
     inkscape:cy="-174.90102"
     inkscape:window-x="0"
     inkscape:window-y="0"
     inkscape:window-maximized="1"
     inkscape:current-layer="svg8"
     inkscape:lockguides="false" />
  <metadata
     id="metadata2">
Created by potrace 1.15, written by Peter Selinger 2001-2017
<rdf:RDF>
  <cc:Work
     rdf:about="">
    <dc:format>image/svg+xml</dc:format>
    <dc:type
       rdf:resource="http://purl.org/dc/dcmitype/StillImage" />
  </cc:Work>
</rdf:RDF>
</metadata>
  <g
     transform="matrix(0.01243358,0,0,-0.01361567,-0.06660733,156.96763)"
     id="g6"
     style="fill:#000000;stroke:none">
    <path
       d="m 11623,11520 c -49,-11 -81,-36 -103,-80 -30,-59 -28,-79 15,-143 l 39,-58 49,2 c 44,3 52,0 70,-25 l 21,-29 -45,-39 c -52,-46 -326,-277 -352,-297 -22,-17 -38,-4 -42,32 -3,24 -96,159 -129,186 -14,12 -22,10 -56,-13 -22,-14 -40,-34 -40,-43 0,-26 110,-193 127,-193 15,0 42,-27 43,-42 0,-7 -259,-203 -354,-268 -39,-26 -50,-30 -57,-19 -4,8 -19,29 -33,48 l -25,34 20,38 19,39 -47,65 c -48,64 -48,65 -88,59 -75,-12 -114,-42 -132,-106 -10,-34 -8,-40 30,-97 38,-59 41,-61 82,-61 39,0 47,-4 75,-40 18,-23 31,-42 29,-44 -21,-19 -244,-139 -280,-151 -64,-22 -80,-43 -85,-112 -16,-195 -80,-357 -184,-463 -30,-31 -959,-766 -2065,-1635 C 7020,7197 6091,6467 6061,6443 c -33,-27 -57,-40 -61,-33 -4,6 -34,15 -68,20 -274,45 -463,193 -511,400 -30,128 -5,324 60,482 65,159 201,340 304,405 l 45,28 v 82 c 0,77 -2,84 -30,117 -17,19 -47,40 -67,47 -120,39 -443,-66 -671,-219 -234,-158 -442,-371 -622,-637 -69,-103 -180,-297 -282,-492 -80,-155 -96,-178 -161,-240 -162,-153 -360,-251 -616,-303 -148,-30 -263,-40 -561,-50 -151,-5 -315,-14 -365,-20 C 1707,5941 1015,5638 598,5217 296,4912 111,4536 55,4112 46,4048 31,3955 22,3905 -1,3782 0,3488 24,3330 108,2769 344,2192 679,1725 c 122,-170 225,-290 395,-460 188,-188 339,-317 578,-496 87,-65 186,-142 221,-171 272,-227 734,-427 1207,-523 268,-55 420,-69 750,-69 375,-1 613,22 875,84 616,146 1004,469 1215,1011 121,312 170,652 170,1204 1,423 23,723 66,865 36,122 105,220 184,260 33,17 154,58 550,185 417,134 592,275 686,552 10,28 15,83 16,149 0,136 -21,186 -97,224 -50,25 -52,25 -320,25 -268,0 -271,0 -337,26 -189,74 -324,203 -390,374 -20,52 -23,77 -23,190 1,191 11,211 173,363 70,65 881,813 1802,1662 921,848 1695,1561 1720,1584 306,284 472,434 509,457 24,16 74,39 110,51 61,21 80,23 265,21 l 200,-3 114,112 c 102,100 115,109 129,95 14,-14 12,-20 -16,-61 l -32,-47 43,-59 c 42,-59 43,-60 83,-54 63,9 140,48 168,86 43,56 43,85 -1,148 -37,54 -39,55 -81,52 -24,-1 -51,-7 -61,-12 -13,-7 -22,-5 -31,7 -12,13 -7,21 36,61 83,75 319,262 331,262 24,0 23,-34 -2,-86 l -26,-54 38,-50 c 21,-27 45,-50 54,-50 9,0 39,7 67,15 59,18 106,65 122,122 15,52 15,50 -26,110 -38,55 -51,59 -107,31 -17,-9 -35,2 -36,23 0,9 185,131 319,211 83,49 118,65 127,57 9,-8 7,-20 -13,-55 -28,-50 -27,-55 19,-119 33,-46 33,-46 84,-41 75,6 108,27 138,88 14,28 26,58 26,66 0,7 -18,40 -40,72 -32,48 -46,59 -71,62 -27,3 -20,8 62,43 155,67 174,78 172,100 0,11 -9,40 -18,64 -15,41 -15,50 1,121 l 16,77 -28,44 c -15,24 -41,61 -58,82 l -30,38 17,47 c 43,126 13,224 -86,278 -37,20 -67,27 -116,29 l -66,3 -38,54 c -83,118 -83,118 -138,118 -58,0 -99,16 -153,59 -41,33 -90,41 -117,19 -9,-7 -46,-47 -83,-90 -37,-42 -78,-84 -92,-93 -24,-15 -26,-15 -44,7 -25,30 -24,45 4,92 l 24,38 -41,59 c -44,61 -55,66 -124,49 z"
       id="path4"
       inkscape:connector-curvature="0" />
  </g>
</svg>
